<?xml version="1.0" encoding="UTF-8"?>
<svg xmlns="http://www.w3.org/2000/svg" xmlns:xlink="http://www.w3.org/1999/xlink" width="360pt" height="360pt" viewBox="104 100 152 160" version="1.2">
<g id="surface1">
<path style=" stroke:none;fill-rule:nonzero;fill:#963417;fill-opacity:1;" d="M 126.277344 146.820312 C 125.859375 149.011719 125.640625 151.273438 125.640625 153.582031 L 125.640625 206.050781 C 125.640625 214.492188 127.8125 222.519531 131.925781 229.269531 C 136.699219 237.09375 143.644531 241.433594 152.566406 242.152344 C 168.191406 243.429688 173.289062 236.339844 174.828125 233 Z M 155.976562 251.78125 C 154.640625 251.78125 153.25 251.726562 151.800781 251.609375 C 139.851562 250.644531 130.175781 244.625 123.824219 234.207031 C 118.804688 225.96875 116.148438 216.234375 116.148438 206.050781 L 116.148438 153.582031 C 116.148438 146.375 117.839844 139.550781 120.847656 133.492188 C 120.941406 133.265625 121.050781 133.042969 121.179688 132.835938 C 128.722656 118.226562 143.96875 108.21875 161.515625 108.21875 L 180.011719 108.21875 C 182.632812 108.21875 184.757812 110.339844 184.757812 112.960938 C 184.757812 115.582031 182.632812 117.707031 180.011719 117.707031 L 161.515625 117.707031 C 151.378906 117.707031 142.210938 121.933594 135.683594 128.710938 C 145.9375 127.941406 160.550781 129.457031 169.796875 141.664062 C 181.175781 156.683594 207.054688 194.1875 214.714844 205.328125 C 217.273438 209.046875 220.1875 212.207031 223.375 214.722656 C 227.511719 217.980469 231.550781 219.832031 235.050781 220.078125 C 237.664062 220.257812 239.636719 222.527344 239.453125 225.140625 C 239.273438 227.753906 237.015625 229.765625 234.390625 229.539062 C 228.902344 229.15625 223.21875 226.679688 217.503906 222.171875 C 213.5625 219.066406 209.996094 215.210938 206.898438 210.703125 C 199.265625 199.609375 173.488281 162.253906 162.234375 147.394531 C 154.519531 137.207031 140.511719 137.476562 132.550781 138.625 L 184.144531 230.210938 C 184.722656 231.234375 184.898438 232.433594 184.640625 233.582031 C 183.164062 240.152344 175.285156 251.78125 155.976562 251.78125 "/>
<path style=" stroke:none;fill-rule:nonzero;fill:#963417;fill-opacity:1;" d="M 185.171875 233.007812 C 186.683594 236.304688 191.796875 243.425781 207.433594 242.152344 C 216.359375 241.433594 223.304688 237.09375 228.074219 229.265625 C 232.1875 222.519531 234.363281 214.492188 234.363281 206.050781 L 234.363281 153.582031 C 234.363281 151.273438 234.140625 149.011719 233.722656 146.824219 Z M 204.023438 251.78125 C 184.710938 251.78125 176.835938 240.152344 175.359375 233.582031 C 175.101562 232.433594 175.277344 231.234375 175.855469 230.210938 L 227.449219 138.625 C 219.496094 137.472656 205.480469 137.207031 197.765625 147.394531 C 186.511719 162.253906 160.734375 199.609375 153.101562 210.703125 C 150.003906 215.214844 146.433594 219.070312 142.5 222.171875 C 136.78125 226.679688 131.097656 229.160156 125.609375 229.542969 C 122.988281 229.773438 120.726562 227.753906 120.546875 225.140625 C 120.363281 222.527344 122.335938 220.257812 124.949219 220.078125 C 128.453125 219.832031 132.488281 217.980469 136.625 214.722656 C 139.8125 212.207031 142.726562 209.046875 145.285156 205.328125 C 152.945312 194.191406 178.824219 156.683594 190.203125 141.664062 C 199.449219 129.464844 214.050781 127.953125 224.320312 128.710938 C 217.789062 121.929688 208.621094 117.707031 198.484375 117.707031 L 179.988281 117.707031 C 177.367188 117.707031 175.242188 115.582031 175.242188 112.960938 C 175.242188 110.339844 177.367188 108.21875 179.988281 108.21875 L 198.484375 108.21875 C 216.023438 108.21875 231.269531 118.21875 238.8125 132.820312 C 238.949219 133.039062 239.0625 133.265625 239.160156 133.507812 C 242.160156 139.5625 243.851562 146.378906 243.851562 153.582031 L 243.851562 206.050781 C 243.851562 216.234375 241.195312 225.96875 236.175781 234.203125 C 229.824219 244.625 220.148438 250.640625 208.199219 251.609375 C 206.75 251.726562 205.359375 251.78125 204.023438 251.78125 "/>
</g>
</svg>
