<?xml version="1.0" encoding="UTF-8"?>
<svg xmlns="http://www.w3.org/2000/svg" xmlns:xlink="http://www.w3.org/1999/xlink" width="360pt" height="360pt" viewBox="36 140 292 82" version="1.2">
<g id="surface1">
<path style=" stroke:none;fill-rule:nonzero;fill:currentColor;fill-opacity:1;" d="M 221.542969 145.464844 L 229.042969 145.464844 C 229.59375 145.464844 230.042969 145.914062 230.042969 146.464844 L 230.042969 206.320312 C 230.042969 206.871094 229.59375 207.320312 229.042969 207.320312 L 221.542969 207.320312 C 220.992188 207.320312 220.542969 206.871094 220.542969 206.320312 L 220.542969 146.464844 C 220.542969 145.914062 220.992188 145.464844 221.542969 145.464844 "/>
<path style=" stroke:none;fill-rule:nonzero;fill:currentColor;fill-opacity:1;" d="M 309.917969 185.390625 C 309.917969 177.234375 302.65625 170.621094 293.707031 170.621094 C 284.753906 170.621094 277.496094 177.234375 277.496094 185.390625 C 277.496094 193.550781 284.753906 200.164062 293.707031 200.164062 C 302.65625 200.164062 309.917969 193.550781 309.917969 185.390625 M 293.707031 208.457031 C 279.726562 208.457031 268.394531 198.128906 268.394531 185.390625 C 268.394531 172.65625 279.726562 162.328125 293.707031 162.328125 C 307.683594 162.328125 319.019531 172.65625 319.019531 185.390625 C 319.019531 198.128906 307.683594 208.457031 293.707031 208.457031 "/>
<path style=" stroke:none;fill-rule:nonzero;fill:currentColor;fill-opacity:1;" d="M 204.933594 185.390625 C 204.933594 177.234375 197.675781 170.621094 188.722656 170.621094 C 179.769531 170.621094 172.511719 177.234375 172.511719 185.390625 C 172.511719 193.550781 179.769531 200.164062 188.722656 200.164062 C 197.675781 200.164062 204.933594 193.550781 204.933594 185.390625 M 188.722656 208.457031 C 174.742188 208.457031 163.410156 198.128906 163.410156 185.390625 C 163.410156 172.65625 174.742188 162.328125 188.722656 162.328125 C 202.703125 162.328125 214.035156 172.65625 214.035156 185.390625 C 214.035156 198.128906 202.703125 208.457031 188.722656 208.457031 "/>
<path style=" stroke:none;fill-rule:nonzero;fill:currentColor;fill-opacity:1;" d="M 152.542969 164.195312 L 160.3125 164.195312 C 161.207031 164.195312 161.816406 165.09375 161.492188 165.925781 L 145.5625 206.515625 C 145.371094 207 144.902344 207.320312 144.382812 207.320312 L 127.535156 207.320312 C 127.019531 207.320312 126.550781 207.003906 126.359375 206.523438 L 110.070312 165.933594 C 109.734375 165.101562 110.347656 164.195312 111.246094 164.195312 L 119.058594 164.195312 C 119.585938 164.195312 120.058594 164.523438 120.242188 165.011719 L 132.339844 196.980469 C 133.535156 200.144531 138.015625 200.148438 139.214844 196.984375 L 151.359375 165.011719 C 151.546875 164.519531 152.015625 164.195312 152.542969 164.195312 "/>
<path style=" stroke:none;fill-rule:nonzero;fill:currentColor;fill-opacity:1;" d="M 255.070312 199.433594 C 251.007812 199.386719 247.742188 196.078125 247.742188 192.015625 L 247.742188 176.003906 C 247.742188 173.582031 249.707031 171.613281 252.132812 171.613281 L 264.617188 171.613281 L 264.617188 163.8125 L 252.132812 163.8125 C 249.707031 163.8125 247.742188 161.847656 247.742188 159.421875 L 247.742188 154.539062 L 238.242188 154.539062 L 238.242188 190.804688 C 238.242188 214.277344 264.867188 207.332031 264.867188 207.332031 L 264.867188 199.546875 Z M 255.070312 199.433594 "/>
<path style=" stroke:none;fill-rule:nonzero;fill:currentColor;fill-opacity:1;" d="M 45.042969 172.453125 C 44.875 173.332031 44.785156 174.238281 44.785156 175.164062 L 44.785156 196.203125 C 44.785156 199.585938 45.65625 202.804688 47.304688 205.507812 C 49.21875 208.648438 52.003906 210.386719 55.582031 210.671875 C 61.84375 211.1875 63.890625 208.34375 64.507812 207.003906 Z M 56.949219 214.535156 C 56.414062 214.535156 55.855469 214.511719 55.277344 214.464844 C 50.484375 214.078125 46.605469 211.664062 44.058594 207.488281 C 42.046875 204.1875 40.984375 200.285156 40.984375 196.203125 L 40.984375 175.164062 C 40.984375 172.277344 41.660156 169.539062 42.867188 167.109375 C 42.902344 167.019531 42.949219 166.929688 43 166.847656 C 46.023438 160.992188 52.136719 156.980469 59.167969 156.980469 L 66.585938 156.980469 C 67.636719 156.980469 68.488281 157.828125 68.488281 158.878906 C 68.488281 159.929688 67.636719 160.78125 66.585938 160.78125 L 59.167969 160.78125 C 55.105469 160.78125 51.429688 162.476562 48.8125 165.195312 C 52.921875 164.886719 58.785156 165.492188 62.492188 170.386719 C 67.050781 176.410156 77.425781 191.445312 80.496094 195.910156 C 81.523438 197.402344 82.691406 198.667969 83.96875 199.675781 C 85.628906 200.984375 87.246094 201.726562 88.652344 201.824219 C 89.699219 201.898438 90.488281 202.804688 90.417969 203.855469 C 90.34375 204.902344 89.4375 205.707031 88.386719 205.617188 C 86.1875 205.464844 83.910156 204.472656 81.617188 202.664062 C 80.035156 201.417969 78.605469 199.871094 77.363281 198.066406 C 74.304688 193.617188 63.96875 178.640625 59.457031 172.683594 C 56.367188 168.601562 50.75 168.707031 47.558594 169.167969 L 68.242188 205.886719 C 68.472656 206.296875 68.542969 206.777344 68.441406 207.238281 C 67.847656 209.871094 64.691406 214.535156 56.949219 214.535156 "/>
<path style=" stroke:none;fill-rule:nonzero;fill:currentColor;fill-opacity:1;" d="M 68.652344 207.007812 C 69.257812 208.328125 71.308594 211.183594 77.578125 210.671875 C 81.15625 210.386719 83.941406 208.644531 85.855469 205.507812 C 87.503906 202.804688 88.375 199.585938 88.375 196.203125 L 88.375 175.164062 C 88.375 174.238281 88.285156 173.332031 88.117188 172.457031 Z M 76.210938 214.535156 C 68.46875 214.535156 65.3125 209.871094 64.71875 207.238281 C 64.617188 206.777344 64.6875 206.296875 64.917969 205.886719 L 85.601562 169.167969 C 82.414062 168.707031 76.796875 168.601562 73.703125 172.683594 C 69.191406 178.640625 58.855469 193.617188 55.796875 198.066406 C 54.554688 199.875 53.125 201.421875 51.546875 202.664062 C 49.253906 204.472656 46.976562 205.464844 44.773438 205.617188 C 43.722656 205.710938 42.816406 204.902344 42.746094 203.851562 C 42.671875 202.804688 43.460938 201.898438 44.507812 201.824219 C 45.914062 201.726562 47.535156 200.984375 49.191406 199.675781 C 50.46875 198.667969 51.636719 197.402344 52.664062 195.910156 C 55.734375 191.445312 66.109375 176.410156 70.671875 170.386719 C 74.378906 165.496094 80.230469 164.890625 84.347656 165.195312 C 81.730469 162.476562 78.054688 160.78125 73.992188 160.78125 L 66.574219 160.78125 C 65.527344 160.78125 64.671875 159.929688 64.671875 158.878906 C 64.671875 157.828125 65.527344 156.976562 66.574219 156.976562 L 73.992188 156.976562 C 81.023438 156.976562 87.132812 160.988281 90.160156 166.84375 C 90.214844 166.929688 90.257812 167.019531 90.296875 167.117188 C 91.5 169.542969 92.179688 172.277344 92.179688 175.164062 L 92.179688 196.203125 C 92.179688 200.285156 91.113281 204.1875 89.101562 207.488281 C 86.554688 211.664062 82.675781 214.078125 77.886719 214.464844 C 77.304688 214.511719 76.746094 214.535156 76.210938 214.535156 "/>
</g>
</svg>
